HIERARCHY
ROOT joint_Root
{
	OFFSET 0.0 0.0 0.0
	CHANNELS 6 Xposition Yposition Zposition Zrotation Xrotation Yrotation 
	JOINT Hips
	{
		OFFSET 4.5925 91.4895 -427.239
		CHANNELS 6 Xposition Yposition Zposition Zrotation Xrotation Yrotation 
		JOINT Spine
		{
			OFFSET 15.7357 0.0 0.0
			CHANNELS 6 Xposition Yposition Zposition Zrotation Xrotation Yrotation 
			JOINT Chest
			{
				OFFSET 8.98455 -0.406207 0.0
				CHANNELS 6 Xposition Yposition Zposition Zrotation Xrotation Yrotation 
				JOINT Neck
				{
					OFFSET 16.3773 0.0 0.0
					CHANNELS 6 Xposition Yposition Zposition Zrotation Xrotation Yrotation 
					JOINT Head
					{
						OFFSET 6.45672 0.0 0.0
						CHANNELS 6 Xposition Yposition Zposition Zrotation Xrotation Yrotation 
						End Site
						{
							OFFSET 0.0 0.0 0.0
						}
					}
				}
				JOINT Shoulder_L
				{
					OFFSET 12.9942 -0.242716 4.98039
					CHANNELS 6 Xposition Yposition Zposition Zrotation Xrotation Yrotation 
					JOINT UpperArm_L
					{
						OFFSET 5.34809 0.0 0.0
						CHANNELS 6 Xposition Yposition Zposition Zrotation Xrotation Yrotation 
						JOINT LowerArm_L
						{
							OFFSET 24.3286 1.87007e-05 0.0
							CHANNELS 6 Xposition Yposition Zposition Zrotation Xrotation Yrotation 
							JOINT Hand_L
							{
								OFFSET 22.2916 0.0 0.0
								CHANNELS 6 Xposition Yposition Zposition Zrotation Xrotation Yrotation 
								End Site
								{
									OFFSET 0.0 0.0 0.0
								}
							}
						}
					}
				}
				JOINT Shoulder_R
				{
					OFFSET 12.9945 -0.242716 -4.98039
					CHANNELS 6 Xposition Yposition Zposition Zrotation Xrotation Yrotation 
					JOINT UpperArm_R
					{
						OFFSET -5.34813 0.0 0.0
						CHANNELS 6 Xposition Yposition Zposition Zrotation Xrotation Yrotation 
						JOINT LowerArm_R
						{
							OFFSET -24.3289 0.000322201 0.0
							CHANNELS 6 Xposition Yposition Zposition Zrotation Xrotation Yrotation 
							JOINT Hand_R
							{
								OFFSET -22.2915 -0.000108084 0.0
								CHANNELS 6 Xposition Yposition Zposition Zrotation Xrotation Yrotation 
								End Site
								{
									OFFSET 0.0 0.0 0.0
								}
							}
						}
					}
				}
			}
		}
		JOINT UpperLeg_L
		{
			OFFSET -2.19248 -6.46944 0.0
			CHANNELS 6 Xposition Yposition Zposition Zrotation Xrotation Yrotation 
			JOINT LowerLeg_L
			{
				OFFSET 39.0811 0.0 -1.23785e-05
				CHANNELS 6 Xposition Yposition Zposition Zrotation Xrotation Yrotation 
				JOINT Foot_L
				{
					OFFSET 40.9854 0.0 -1.26872e-05
					CHANNELS 6 Xposition Yposition Zposition Zrotation Xrotation Yrotation 
					JOINT Toes_L
					{
						OFFSET 11.7543 0.0 0.0
						CHANNELS 6 Xposition Yposition Zposition Zrotation Xrotation Yrotation 
						End Site
						{
							OFFSET 0.0 0.0 0.0
						}
					}
				}
			}
		}
		JOINT UpperLeg_R
		{
			OFFSET -2.19251 6.46944 0.0
			CHANNELS 6 Xposition Yposition Zposition Zrotation Xrotation Yrotation 
			JOINT LowerLeg_R
			{
				OFFSET -39.0811 -0.00228153 -0.0401928
				CHANNELS 6 Xposition Yposition Zposition Zrotation Xrotation Yrotation 
				JOINT Foot_R
				{
					OFFSET -40.9854 0.0 0.0
					CHANNELS 6 Xposition Yposition Zposition Zrotation Xrotation Yrotation 
					JOINT Toes_R
					{
						OFFSET -11.7543 0.0 0.0
						CHANNELS 6 Xposition Yposition Zposition Zrotation Xrotation Yrotation 
						End Site
						{
							OFFSET 0.0 0.0 0.0
						}
					}
				}
			}
		}
	}
}
MOTION
Frames:	6
Frame Time:	0.0333333
0.000000 0.000000 0.000000 0.000000 0.000000 -0.000000 0.511689 87.431500 502.811000 -88.354100 -1.369000 177.226000 15.735700 0.000005 -0.000001 65.707500 83.265700 -64.829300 8.984550 -0.406207 -0.000000 4.570690 -5.555740 1.977480 16.377300 -0.000001 -0.000001 -3.978100 -1.942300 0.686368 6.456720 -0.000001 -0.000000 -5.512830 1.227080 3.285630 12.994200 -0.242716 4.980390 -89.863700 -0.526352 -75.480400 5.348090 -0.000007 -0.000001 -64.854600 16.102500 -33.476000 24.328600 0.000019 0.000005 4.671030 -0.841707 -100.193000 22.291600 -0.000001 0.000005 20.502700 5.484170 -5.909340 12.994500 -0.242716 -4.980390 88.505300 7.093980 -78.069900 -5.348130 -0.000001 -0.000004 -71.569900 32.451200 23.084200 -24.328900 0.000322 -0.000009 -24.969600 -11.845400 -66.210400 -22.291500 -0.000108 -0.000004 24.118800 5.654980 -15.511600 -2.192480 -6.469440 -0.000000 -178.199000 -6.865210 -4.744920 39.081100 -0.000007 -0.000012 0.002854 -0.003669 37.867000 40.985400 -0.000006 -0.000013 1.330800 -4.403960 -80.778000 11.754300 -0.000000 0.000003 -1.937370 -2.356070 -18.587900 -2.192510 6.469440 -0.000001 -173.464000 17.945400 145.947000 -39.081100 -0.002282 -0.040193 0.017534 -0.014066 45.414000 -40.985400 0.000008 0.000006 2.306190 -2.436220 -65.363900 -11.754300 -0.000006 -0.000006 -0.017070 -0.150480 -22.716200
0.000000 0.000000 0.000000 0.000000 0.000000 -0.000000 1.004330 87.645900 498.737000 -88.601100 -1.306090 176.989000 15.735700 0.000005 -0.000001 64.881500 83.428400 -63.894900 8.984550 -0.406207 -0.000000 4.199800 -5.601270 2.177730 16.377300 -0.000001 -0.000001 -3.844450 -1.854160 0.857747 6.456720 -0.000001 -0.000000 -5.484750 1.316170 3.087250 12.994200 -0.242716 4.980390 -90.006300 0.024546 -75.586500 5.348090 -0.000007 -0.000001 -64.768200 18.475500 -28.454900 24.328600 0.000019 0.000005 4.550790 -0.620460 -97.745400 22.291600 -0.000001 0.000005 19.768400 5.486110 -5.984730 12.994500 -0.242716 -4.980390 88.409100 7.750690 -78.363200 -5.348130 -0.000001 -0.000004 -69.714900 32.469600 19.623800 -24.328900 0.000322 -0.000009 -25.116200 -10.366600 -68.999600 -22.291500 -0.000108 -0.000004 24.159500 5.656360 -15.654200 -2.192480 -6.469440 -0.000000 -177.739000 -6.102370 -4.593000 39.081100 -0.000007 -0.000012 0.007117 -0.008140 41.154500 40.985400 -0.000006 -0.000013 0.064613 -4.038060 -76.110500 11.754300 -0.000000 0.000003 -0.026492 -0.200924 -24.800400 -2.192510 6.469440 -0.000001 -172.314000 18.488700 146.694000 -39.081100 -0.002282 -0.040193 0.023983 -0.022004 43.269400 -40.985400 0.000008 0.000006 9.164770 -2.097210 -64.686400 -11.754300 -0.000006 -0.000006 -0.013347 -0.127144 -21.758200
0.000000 0.000000 0.000000 0.000000 0.000000 -0.000000 1.474940 87.413900 494.193000 -89.635800 -1.771130 177.919000 15.735700 0.000005 -0.000001 65.632300 83.315800 -64.817200 8.984550 -0.406207 -0.000000 4.468270 -5.529820 1.845200 16.377300 -0.000001 -0.000001 -3.603770 -2.073290 0.983037 6.456720 -0.000001 -0.000000 -5.329420 1.000750 2.848360 12.994200 -0.242716 4.980390 -90.236100 0.927196 -75.710900 5.348090 -0.000007 -0.000001 -64.166300 21.786800 -22.979000 24.328600 0.000019 0.000005 4.569440 -0.205269 -92.572100 22.291600 -0.000001 0.000005 18.350400 5.493700 -6.287500 12.994500 -0.242716 -4.980390 88.204100 8.813860 -78.435200 -5.348130 -0.000001 -0.000004 -67.077200 31.700000 14.228700 -24.328900 0.000322 -0.000009 -25.043400 -8.385350 -72.666700 -22.291500 -0.000108 -0.000004 24.750200 5.659570 -16.008100 -2.192480 -6.469440 -0.000000 -177.804000 -6.211390 -6.687120 39.081100 -0.000007 -0.000012 0.026612 -0.022428 49.871800 40.985400 -0.000006 -0.000013 0.976579 -3.258330 -67.847300 11.754300 -0.000000 0.000003 -0.091206 -0.422207 -34.157600 -2.192510 6.469440 -0.000001 -175.455000 15.254100 150.564000 -39.081100 -0.002282 -0.040193 -0.142727 0.140594 46.078500 -40.985400 0.000008 0.000006 5.586560 -4.143050 -70.008600 -11.754300 -0.000006 -0.000006 -0.012776 -0.123327 -21.601700
0.000000 0.000000 0.000000 0.000000 0.000000 -0.000000 1.948560 86.867700 490.038000 -90.458600 -2.039310 179.118000 15.735700 0.000005 -0.000001 70.590200 83.116000 -69.824200 8.984550 -0.406207 -0.000000 5.263880 -4.582220 1.741680 16.377300 -0.000001 -0.000001 -3.630830 -2.585140 1.104570 6.456720 -0.000001 -0.000000 -5.642960 0.205385 2.375930 12.994200 -0.242716 4.980390 -90.463300 1.834350 -75.822000 5.348090 -0.000007 -0.000001 -63.432900 25.874400 -18.662400 24.328600 0.000019 0.000005 6.012840 0.614567 -84.212800 22.291600 -0.000001 0.000005 15.532400 5.494920 -6.337830 12.994500 -0.242716 -4.980390 88.042400 9.690810 -78.522100 -5.348130 -0.000001 -0.000004 -64.133700 29.242900 6.952940 -24.328900 0.000322 -0.000009 -25.348800 -5.913980 -77.727700 -22.291500 -0.000108 -0.000004 25.893400 5.659280 -15.973300 -2.192480 -6.469440 -0.000000 -178.053000 -6.114440 -12.340200 39.081100 -0.000007 -0.000012 0.045551 -0.023627 62.579400 40.985400 -0.000006 -0.000013 2.988370 -3.816490 -57.036000 11.754300 -0.000000 0.000003 -0.039963 -0.259973 -27.256000 -2.192510 6.469440 -0.000001 -177.137000 13.876300 153.824000 -39.081100 -0.002282 -0.040193 -0.359628 0.318344 48.740900 -40.985400 0.000008 0.000006 4.041300 -5.769830 -74.429000 -11.754300 -0.000006 -0.000006 -0.007226 -0.081596 -19.895000
0.000000 0.000000 0.000000 0.000000 0.000000 -0.000000 2.190660 85.956500 486.289000 -90.194300 -1.175970 -179.745000 15.735700 0.000005 -0.000001 78.953200 82.815500 -77.864900 8.984550 -0.406207 -0.000000 6.369550 -2.758430 2.328060 16.377300 -0.000001 -0.000001 -3.900760 -2.761140 1.283250 6.456720 -0.000001 -0.000000 -6.036470 -0.531732 1.894630 12.994200 -0.242716 4.980390 -90.578300 2.321940 -76.010200 5.348090 -0.000007 -0.000001 -63.776200 29.758100 -14.546100 24.328600 0.000019 0.000005 7.224380 2.153160 -73.493100 22.291600 -0.000001 0.000005 13.684500 5.513410 -7.086550 12.994500 -0.242716 -4.980390 88.147700 10.062400 -79.512800 -5.348130 -0.000001 -0.000004 -61.196100 25.394300 -1.927040 -24.328900 0.000322 -0.000009 -25.731800 -3.039440 -83.720600 -22.291500 -0.000108 -0.000004 26.428400 5.658950 -15.943900 -2.192480 -6.469440 -0.000000 -177.908000 -6.532570 -18.085400 39.081100 -0.000007 -0.000012 0.042432 -0.012289 73.839800 40.985400 -0.000006 -0.000013 4.302830 -4.578650 -55.319700 11.754300 -0.000000 0.000003 -0.005365 -0.064965 -19.220300 -2.192510 6.469440 -0.000001 -177.512000 14.292700 156.608000 -39.081100 -0.002282 -0.040193 -0.310504 0.249975 51.454500 -40.985400 0.000008 0.000006 4.536940 -5.127850 -78.693800 -11.754300 -0.000006 -0.000006 -0.003776 -0.049087 -18.569700
0.000000 0.000000 0.000000 0.000000 0.000000 -0.000000 2.273760 85.242400 482.807000 -90.146700 0.625307 -179.212000 15.735700 0.000005 -0.000001 86.536600 82.618300 -85.287400 8.984550 -0.406207 -0.000000 6.982140 -0.897353 2.550600 16.377300 -0.000001 -0.000001 -4.014400 -2.501700 1.523250 6.456720 -0.000001 -0.000000 -6.118100 -0.606871 1.366580 12.994200 -0.242716 4.980390 -90.745500 3.009060 -76.078400 5.348090 -0.000007 -0.000001 -65.036800 32.332000 -8.033360 24.328600 0.000019 0.000005 8.121750 3.865510 -64.730100 22.291600 -0.000001 0.000005 13.448500 5.531090 -7.843000 12.994500 -0.242716 -4.980390 88.296100 10.568600 -80.787200 -5.348130 -0.000001 -0.000004 -58.139200 21.978300 -12.541300 -24.328900 0.000322 -0.000009 -26.690900 -0.108937 -89.782900 -22.291500 -0.000108 -0.000004 28.631700 5.656260 -15.649900 -2.192480 -6.469440 -0.000000 -178.586000 -7.477220 -23.761400 39.081100 -0.000007 -0.000012 0.032194 -0.005201 80.810500 40.985400 -0.000006 -0.000013 4.874390 -4.192930 -58.776800 11.754300 -0.000000 0.000003 -0.004896 -0.060459 -19.036700 -2.192510 6.469440 -0.000001 -178.341000 15.145800 159.182000 -39.081100 -0.002282 -0.040193 -0.278940 0.212520 53.015100 -40.985400 0.000008 0.000006 5.228970 -3.087570 -82.223600 -11.754300 -0.000006 -0.000006 -0.002485 -0.034636 -17.981600
